<svg xmlns="http://www.w3.org/2000/svg" viewBox="0 0 18.53 22.89"><defs><style>.cls-1{isolation:isolate;}.cls-2{fill:#6ba6d4;}</style></defs><title>登录框</title><g id="图层_2" data-name="图层 2"><g id="登录"><g id="登录框"><g id="按钮登录"><g id="矩形_6_拷贝_2" data-name="矩形 6 拷贝 2" class="cls-1"><path class="cls-2" d="M13.62,8a.54.54,0,0,1-.54-.54V4.9A3.82,3.82,0,0,0,9.26,1.09,3.82,3.82,0,0,0,5.45,4.9V7.45a.55.55,0,0,1-1.09,0V4.9A4.83,4.83,0,0,1,5.8,1.44a4.89,4.89,0,0,1,6.93,0A4.83,4.83,0,0,1,14.17,4.9V7.45A.55.55,0,0,1,13.62,8Zm2.55,14.9H2.36A2.37,2.37,0,0,1,0,20.52V11.08A2.36,2.36,0,0,1,2.36,8.72H16.17a2.36,2.36,0,0,1,2.36,2.36v9.44A2.37,2.37,0,0,1,16.17,22.89ZM2.36,9.81a1.27,1.27,0,0,0-1.27,1.27v9.44A1.27,1.27,0,0,0,2.36,21.8H16.17a1.27,1.27,0,0,0,1.27-1.28V11.08a1.27,1.27,0,0,0-1.27-1.27Z"/><path class="cls-2" d="M9.26,19.62a.55.55,0,0,1-.54-.55V16.89a.55.55,0,0,1,1.09,0v2.18A.55.55,0,0,1,9.26,19.62Z"/><path class="cls-2" d="M9.26,17.44A2.73,2.73,0,1,1,12,14.71,2.72,2.72,0,0,1,9.26,17.44Zm0-4.36a1.64,1.64,0,0,0,0,3.27,1.64,1.64,0,1,0,0-3.27Z"/></g></g></g></g></g></svg>