<svg xmlns="http://www.w3.org/2000/svg" viewBox="0 0 20.67 23.85"><defs><style>.cls-1{isolation:isolate;}.cls-2{fill:#6ba6d4;}</style></defs><title>登录框 (2)</title><g id="图层_2" data-name="图层 2"><g id="登录"><g id="登录框"><g id="按钮登录"><g id="矩形_6_拷贝_2" data-name="矩形 6 拷贝 2" class="cls-1"><path class="cls-2" d="M10.34,14.31a7.16,7.16,0,1,1,7.15-7.15A7.13,7.13,0,0,1,10.34,14.31Zm0-12.72A5.64,5.64,0,0,0,4.77,7.16a5.63,5.63,0,0,0,5.57,5.56A5.63,5.63,0,0,0,15.9,7.16,5.63,5.63,0,0,0,10.34,1.59Z"/><path class="cls-2" d="M19.88,23.85a.75.75,0,0,1-.8-.79,8.82,8.82,0,0,0-8.74-8.75,8.83,8.83,0,0,0-8.75,8.75.75.75,0,0,1-.79.79.75.75,0,0,1-.8-.79,10.34,10.34,0,1,1,20.67,0A.74.74,0,0,1,19.88,23.85Z"/></g></g></g></g></g></svg>